<svg xmlns="http://www.w3.org/2000/svg" width="1185" height="864" viewBox="0 0 592 432" role="img"><rect x="0.0" y="0.0" width="592.3" height="432.0" fill="#F8FAFC"/><rect x="0.0" y="0.0" width="592.3" height="54.0" fill="#1E293B"/><text x="296.2" y="28.0" font-size="22" fill="#F8FAFC" font-weight="700" text-anchor="middle" dominant-baseline="central">薇笑传媒主播数据统计 2026-09-19</text><rect x="0.0" y="54.0" width="592.3" height="32.0" fill="#E2E8F0"/><text x="53.0" y="71.0" font-size="13" fill="#475569" font-weight="700" text-anchor="middle" dominant-baseline="central">排名</text><text x="94.0" y="71.0" font-size="13" fill="#475569" font-weight="700" text-anchor="start" dominant-baseline="central">主播姓名</text><text x="236.2" y="71.0" font-size="13" fill="#475569" font-weight="700" text-anchor="middle" dominant-baseline="central">9月未播天数</text><text x="362.3" y="71.0" font-size="13" fill="#475569" font-weight="700" text-anchor="middle" dominant-baseline="central">19日音浪</text><text x="560.3" y="71.0" font-size="13" fill="#475569" font-weight="700" text-anchor="end" dominant-baseline="central">累计总音浪</text><rect x="0.0" y="86.0" width="592.3" height="38.0" fill="#FEF3C7"/><line x1="0" y1="86.0" x2="592.3" y2="86.0" stroke="#E2E8F0" stroke-width="0.5"/><text x="53.0" y="106.0" font-size="20" fill="#334155" font-weight="700" text-anchor="middle" dominant-baseline="central">🥇</text><text x="94.0" y="106.0" font-size="15" fill="#0F172A" font-weight="500" text-anchor="start" dominant-baseline="central">柚子</text><text x="236.2" y="106.0" font-size="13" fill="#15803D" font-weight="700" text-anchor="middle" dominant-baseline="central">0</text><rect x="290.3" y="95.0" width="144.0" height="22.0" fill="#DBEAFE" rx="11.0"/><rect x="290.3" y="95.0" width="144.0" height="22.0" fill="#60A5FA" rx="11.0"/><text x="362.3" y="106.0" font-size="13" fill="#FFFFFF" font-weight="700" text-anchor="middle" dominant-baseline="central" font-family="SF Mono, Menlo, Consolas, monospace">38.6 万</text><text x="560.3" y="106.0" font-size="14" fill="#475569" font-weight="500" text-anchor="end" dominant-baseline="central" font-family="SF Mono, Menlo, Consolas, monospace">1556 万</text><rect x="0.0" y="124.0" width="592.3" height="38.0" fill="#F8FAFC"/><line x1="0" y1="124.0" x2="592.3" y2="124.0" stroke="#E2E8F0" stroke-width="0.5"/><text x="53.0" y="144.0" font-size="20" fill="#334155" font-weight="700" text-anchor="middle" dominant-baseline="central">🥈</text><text x="94.0" y="144.0" font-size="15" fill="#0F172A" font-weight="500" text-anchor="start" dominant-baseline="central">小满</text><text x="236.2" y="144.0" font-size="13" fill="#15803D" font-weight="700" text-anchor="middle" dominant-baseline="central">0</text><rect x="290.3" y="133.0" width="144.0" height="22.0" fill="#DBEAFE" rx="11.0"/><rect x="290.3" y="133.0" width="79.8" height="22.0" fill="#60A5FA" rx="11.0"/><text x="362.3" y="144.0" font-size="13" fill="#FFFFFF" font-weight="700" text-anchor="middle" dominant-baseline="central" font-family="SF Mono, Menlo, Consolas, monospace">21.4 万</text><text x="560.3" y="144.0" font-size="14" fill="#475569" font-weight="500" text-anchor="end" dominant-baseline="central" font-family="SF Mono, Menlo, Consolas, monospace">921 万</text><rect x="0.0" y="162.0" width="592.3" height="38.0" fill="#FFEDD5"/><line x1="0" y1="162.0" x2="592.3" y2="162.0" stroke="#E2E8F0" stroke-width="0.5"/><text x="53.0" y="182.0" font-size="20" fill="#334155" font-weight="700" text-anchor="middle" dominant-baseline="central">🥉</text><text x="94.0" y="182.0" font-size="15" fill="#0F172A" font-weight="500" text-anchor="start" dominant-baseline="central">初夏</text><text x="236.2" y="182.0" font-size="13" fill="#15803D" font-weight="700" text-anchor="middle" dominant-baseline="central">0</text><rect x="290.3" y="171.0" width="144.0" height="22.0" fill="#DBEAFE" rx="11.0"/><rect x="290.3" y="171.0" width="35.8" height="22.0" fill="#60A5FA" rx="11.0"/><text x="362.3" y="182.0" font-size="13" fill="#1E3A8A" font-weight="700" text-anchor="middle" dominant-baseline="central" font-family="SF Mono, Menlo, Consolas, monospace">9.6 万</text><text x="560.3" y="182.0" font-size="14" fill="#475569" font-weight="500" text-anchor="end" dominant-baseline="central" font-family="SF Mono, Menlo, Consolas, monospace">413 万</text><rect x="0.0" y="200.0" width="592.3" height="38.0" fill="#FEF2F2"/><rect x="0.0" y="200.0" width="4.0" height="38.0" fill="#DC2626"/><line x1="0" y1="200.0" x2="592.3" y2="200.0" stroke="#FECACA" stroke-width="0.5"/><text x="53.0" y="220.0" font-size="15" fill="#B91C1C" font-weight="700" text-anchor="middle" dominant-baseline="central" font-family="Georgia, Times New Roman, serif" font-style="italic">04</text><text x="94.0" y="220.0" font-size="15" fill="#991B1B" font-weight="700" text-anchor="start" dominant-baseline="central">老K</text><text x="236.2" y="220.0" font-size="13" fill="#B91C1C" font-weight="700" text-anchor="middle" dominant-baseline="central">3</text><rect x="290.3" y="209.0" width="144.0" height="22.0" fill="#FEE2E2" rx="11.0"/><text x="362.3" y="220.0" font-size="13" fill="#DC2626" font-weight="700" text-anchor="middle" dominant-baseline="central">未开播</text><text x="560.3" y="220.0" font-size="14" fill="#475569" font-weight="500" text-anchor="end" dominant-baseline="central" font-family="SF Mono, Menlo, Consolas, monospace">872 万</text><rect x="0.0" y="238.0" width="592.3" height="38.0" fill="#FEF2F2"/><rect x="0.0" y="238.0" width="4.0" height="38.0" fill="#DC2626"/><line x1="0" y1="238.0" x2="592.3" y2="238.0" stroke="#FECACA" stroke-width="0.5"/><text x="53.0" y="258.0" font-size="15" fill="#B91C1C" font-weight="700" text-anchor="middle" dominant-baseline="central" font-family="Georgia, Times New Roman, serif" font-style="italic">05</text><text x="94.0" y="258.0" font-size="15" fill="#991B1B" font-weight="700" text-anchor="start" dominant-baseline="central">南风</text><text x="236.2" y="258.0" font-size="13" fill="#B91C1C" font-weight="700" text-anchor="middle" dominant-baseline="central">2</text><rect x="290.3" y="247.0" width="144.0" height="22.0" fill="#FEE2E2" rx="11.0"/><text x="362.3" y="258.0" font-size="13" fill="#DC2626" font-weight="700" text-anchor="middle" dominant-baseline="central">未开播</text><text x="560.3" y="258.0" font-size="14" fill="#475569" font-weight="500" text-anchor="end" dominant-baseline="central" font-family="SF Mono, Menlo, Consolas, monospace">321 万</text><rect x="0.0" y="276.0" width="592.3" height="38.0" fill="#FEF2F2"/><rect x="0.0" y="276.0" width="4.0" height="38.0" fill="#DC2626"/><line x1="0" y1="276.0" x2="592.3" y2="276.0" stroke="#FECACA" stroke-width="0.5"/><text x="53.0" y="296.0" font-size="15" fill="#B91C1C" font-weight="700" text-anchor="middle" dominant-baseline="central" font-family="Georgia, Times New Roman, serif" font-style="italic">06</text><text x="94.0" y="296.0" font-size="15" fill="#991B1B" font-weight="700" text-anchor="start" dominant-baseline="central">阿岩</text><text x="236.2" y="296.0" font-size="13" fill="#B91C1C" font-weight="700" text-anchor="middle" dominant-baseline="central">1</text><rect x="290.3" y="285.0" width="144.0" height="22.0" fill="#FEE2E2" rx="11.0"/><text x="362.3" y="296.0" font-size="13" fill="#DC2626" font-weight="700" text-anchor="middle" dominant-baseline="central">未开播</text><text x="560.3" y="296.0" font-size="14" fill="#475569" font-weight="500" text-anchor="end" dominant-baseline="central" font-family="SF Mono, Menlo, Consolas, monospace">118 万</text><rect x="0.0" y="314.0" width="592.3" height="118.0" fill="#E2E8F0"/><text x="20.0" y="340.0" font-size="18" fill="#334155" font-weight="700" text-anchor="start" dominant-baseline="central">女主播 6 人 · 未开播人数 3 人 · 未开播天数 6 天</text><text x="20.0" y="364.0" font-size="12" fill="#64748B" font-weight="500" text-anchor="start" dominant-baseline="central">数据日期 2026-09-19</text><rect x="20.0" y="378.0" width="552.3" height="40.0" fill="#FEF2F2" rx="8" stroke="#FECACA" stroke-width="1"/><text x="34.0" y="400.0" font-size="14" fill="#DC2626" font-weight="700" text-anchor="start" dominant-baseline="central">未开播人数 3 人 · 未开播天数 6 天</text><text x="34.0" y="418.0" font-size="11" fill="#7F1D1D" font-weight="500" text-anchor="start" dominant-baseline="central">薇笑: 大鹏、青禾  /  无师傅: 南风、木子、阿岩</text></svg>